<?xml version="1.0" encoding="UTF-8"?>
<svg version="1.1" xmlns="http://www.w3.org/2000/svg" width="250" height="250">
<path d="M0 0 C82.5 0 165 0 250 0 C250 82.5 250 165 250 250 C167.5 250 85 250 0 250 C0 167.5 0 85 0 0 Z " fill="#FEFEFE" transform="translate(0,0)"/>
<path d="M0 0 C1.0528418 0.02030273 1.0528418 0.02030273 2.12695312 0.04101562 C3.85579829 0.07629818 5.58424765 0.13010417 7.3125 0.1875 C8.00097656 1.80834961 8.00097656 1.80834961 8.3125 4.1875 C7.13183594 7.00219727 7.13183594 7.00219727 5.296875 10.25390625 C4.80600655 11.13458267 4.80600655 11.13458267 4.30522156 12.03305054 C3.23554444 13.94525623 2.14891451 15.84726317 1.0625 17.75 C0.32704723 19.06193225 -0.40724196 20.37451744 -1.14038086 21.68774414 C-4.42369158 27.54815018 -7.7676917 33.3652384 -11.23828125 39.1171875 C-11.75293945 39.97626709 -12.26759766 40.83534668 -12.79785156 41.72045898 C-13.74080471 43.28184862 -14.69902281 44.83415752 -15.67480469 46.37524414 C-16.0927832 47.06481201 -16.51076172 47.75437988 -16.94140625 48.46484375 C-17.30564697 49.04484131 -17.6698877 49.62483887 -18.04516602 50.22241211 C-19.3064605 54.08108156 -18.03634955 57.41046773 -16.42822266 60.99243164 C-15.64777588 62.40576782 -15.64777588 62.40576782 -14.8515625 63.84765625 C-14.28179687 64.88857422 -13.71203125 65.92949219 -13.125 67.00195312 C-12.2278125 68.60973633 -12.2278125 68.60973633 -11.3125 70.25 C-10.72210938 71.32572266 -10.13171875 72.40144531 -9.5234375 73.50976562 C-6.37927981 79.24862399 -6.37927981 79.24862399 -2.99365234 84.84545898 C-1.6875 87.1875 -1.6875 87.1875 -1.6875 90.1875 C-4.40128221 90.43228436 -7.09296971 90.60910328 -9.8125 90.75 C-10.57304687 90.82541016 -11.33359375 90.90082031 -12.1171875 90.97851562 C-14.56390703 91.07343147 -16.3613841 90.96811097 -18.6875 90.1875 C-21.37497687 87.58254751 -22.93920068 84.46991058 -24.6875 81.1875 C-25.58106201 79.66225708 -25.58106201 79.66225708 -26.49267578 78.10620117 C-28.44522179 74.76534961 -30.32087148 71.38950548 -32.1875 68 C-32.51717773 67.42386963 -32.84685547 66.84773926 -33.18652344 66.25415039 C-34.15430067 64.56196764 -35.09321385 62.85337981 -36.03125 61.14453125 C-36.59005859 60.14397705 -37.14886719 59.14342285 -37.72460938 58.11254883 C-39.18950335 53.66252482 -37.59320116 50.99830278 -35.58105469 46.9753418 C-34.97632324 45.94147339 -34.97632324 45.94147339 -34.359375 44.88671875 C-33.89587646 44.0860498 -33.43237793 43.28538086 -32.95483398 42.46044922 C-32.45411377 41.60725098 -31.95339355 40.75405273 -31.4375 39.875 C-30.35937496 38.01768232 -29.28261335 36.15957271 -28.20703125 34.30078125 C-27.63807129 33.31803223 -27.06911133 32.3352832 -26.48291016 31.32275391 C-24.58903889 28.01556125 -22.73321559 24.68932985 -20.88671875 21.35546875 C-20.25991211 20.22471924 -19.63310547 19.09396973 -18.98730469 17.92895508 C-17.76164935 15.71335971 -16.53954487 13.49579569 -15.32128906 11.27612305 C-14.76022461 10.26461182 -14.19916016 9.25310059 -13.62109375 8.2109375 C-13.12665771 7.31294434 -12.63222168 6.41495117 -12.12280273 5.48974609 C-8.75478485 0.08739729 -6.19111551 -0.22544678 0 0 Z " fill="#601BEB" transform="translate(154.6875,74.8125)"/>
<path d="M0 0 C5.64916489 -1.002694 11.47852163 -1.99926402 17 0 C21.84787001 4.18934055 25.4227281 10.81848044 27 17 C26.20416756 22.98498475 21.94917305 28.63805823 18.9375 33.8125 C18.38255859 34.77865234 17.82761719 35.74480469 17.25585938 36.74023438 C13.15916995 43.84083005 13.15916995 43.84083005 12 45 C9.13732433 45.07325168 6.299281 45.09238205 3.4375 45.0625 C2.63119141 45.05798828 1.82488281 45.05347656 0.99414062 45.04882812 C-1.00393756 45.03700518 -3.00197783 45.01906914 -5 45 C-4.42286027 41.11026004 -3.27518466 38.42474081 -1.20703125 35.09375 C-0.3862207 33.73056641 -0.3862207 33.73056641 0.45117188 32.33984375 C1.61192444 30.44138005 2.7812657 28.54814187 3.95898438 26.66015625 C4.50232422 25.75136719 5.04566406 24.84257813 5.60546875 23.90625 C6.11231201 23.08447266 6.61915527 22.26269531 7.14135742 21.41601562 C8.27103442 18.97842084 8.27103442 18.97842084 7.24389648 16.35180664 C5.42462295 12.91214777 3.34791188 9.67175792 1.2421875 6.40234375 C0 4 0 4 0 0 Z " fill="#5372FF" transform="translate(92,93)"/>
</svg>
